/* XPM */
static char *bitcoin64[] = {
"64 64 137 2 0 0",
"   c #FFFFFF",
"!  c #FEFEFE",
"#  c #E8E8E8",
"$  c #000000",
"%  c #E5E5E5",
"&  c #FBFBFB",
"'  c #8C8C8C",
"(  c #545454",
")  c #060606",
"*  c #424242",
"+  c #878787",
",  c #E1E1E1",
"-  c #828282",
".  c #030303",
"/  c #010101",
"0  c #020202",
"1  c #6A6A6A",
"2  c #F3F3F3",
"3  c #4A4A4A",
"4  c #282828",
"5  c #CDCDCD",
"6  c #040404",
"7  c #272727",
"8  c #F4F4F4",
"9  c #ACACAC",
":  c #797979",
";  c #818181",
"<  c #131313",
"=  c #727272",
">  c #323232",
"?  c #4F4F4F",
"@  c #A2A2A2",
"A  c #CCCCCC",
"B  c #707070",
"C  c #0D0D0D",
"D  c #F6F6F6",
"E  c #939393",
"F  c #C0C0C0",
"G  c #232323",
"H  c #ECECEC",
"I  c #8A8A8A",
"J  c #FCFCFC",
"K  c #CACACA",
"L  c #CFCFCF",
"M  c #EEEEEE",
"N  c #252525",
"O  c #666666",
"P  c #C7C7C7",
"Q  c #FAFAFA",
"R  c #858585",
"S  c #D1D1D1",
"T  c #303030",
"U  c #D5D5D5",
"V  c #FDFDFD",
"W  c #A8A8A8",
"X  c #C2C2C2",
"Y  c #1B252D",
"Z  c #74848C",
"[  c #E9E9E9",
"]  c #484848",
"^  c #262626",
"_  c #EDEDED",
"`  c #464646",
"a  c #7F7F7F",
"b  c #F5FFFF",
"c  c #7D7D7D",
"d  c #7E7E7E",
"e  c #37251C",
"f  c #001231",
"g  c #FEFFFF",
"h  c #3A3A3A",
"i  c #00000B",
"j  c #153655",
"k  c #0F0F0F",
"l  c #00041A",
"m  c #DEEAFE",
"n  c #D6E5EE",
"o  c #1F344F",
"p  c #EBEBEB",
"q  c #000002",
"r  c #99A5B5",
"s  c #121A2D",
"t  c #011121",
"u  c #4E698C",
"v  c #292929",
"w  c #9D9D9D",
"x  c #525252",
"y  c #160100",
"z  c #262116",
"{  c #BEE3FF",
"|  c #2D2C28",
"}  c #000124",
"~  c #D8D8D8",
" ! c #9FB6D1",
"!! c #7B7B7B",
"#! c #1A2F50",
"$! c #2D2D2D",
"%! c #0A1A25",
"&! c #DBDBDB",
"'! c #6C6C6C",
"(! c #4A637E",
")! c #989898",
"*! c #717171",
"+! c #767676",
",! c #171F29",
"-! c #6A7380",
".! c #FCFFFF",
"/! c #A0A0A0",
"0! c #2A2A2A",
"1! c #636363",
"2! c #868686",
"3! c #070707",
"4! c #090909",
"5! c #242424",
"6! c #393939",
"7! c #080808",
"8! c #C4C4C4",
"9! c #050505",
":! c #0E0E0E",
";! c #333333",
"<! c #F1F1F1",
"=! c #F9F9F9",
">! c #454545",
"?! c #343434",
"@! c #3D3D3D",
"A! c #BDBDBD",
"B! c #121212",
"C! c #909090",
"D! c #646464",
"E! c #A9A9A9",
"F! c #B2B2B2",
"G! c #6E6E6E",
"H! c #ABABAB",
"I! c #9E9E9E",
"J! c #D4D4D4",
"K! c #5B5B5B",
"L! c None",
"L!L!L!L!L!L!L!L!L!L!L!L!L!L!L!L!L!L!L!L!L!L!L!L!L!L!L!L!L!L!L!L!L!L!L!L!L!L!L!L!L!L!L!L!L!L!L!L!L!L!L!L!L!L!L!L!L!L!L!L!L!L!L!L!",
"L!L!L!L!L!L!L!L!L!L!L!L!L!L!L!L!L!L!L!L!L!L!L!L!L!L!L!L!L!L!L!L!L!L!L!L!L!L!L!L!L!L!L!L!L!L!L!L!L!L!L!L!L!L!L!L!L!L!L!L!L!L!L!L!",
"L!L!L!L!L!L!L!L!L!L!L!L!L!L!L!L!L!L!L!L!L!L!L!L!L!L!L!L!L!L!L!L!L!L!L!            L!L!L!L!L!L!L!L!L!L!L!L!L!L!L!L!L!L!L!L!L!L!L!",
"L!L!L!L!L!L!L!L!L!L!L!L!L!L!L!L!L!L!L!L!L!L!L!L!L!L!L!L!L!!             # $ $ %             ! L!L!L!L!L!L!L!L!L!L!L!L!L!L!L!L!L!",
"L!L!L!L!L!L!L!L!L!L!L!L!L!L!L!L!L!L!L!L!L!L!L!L!L!L!L!      & ' ( ) $ $ $ $ $ $ $ $ $ * + ,         L!L!L!L!L!L!L!L!L!L!L!L!L!L!",
"L!L!L!L!L!L!L!L!L!L!L!L!L!L!L!L!L!L!L!L!L!L!L!L!L!      - . $ $ $ $ / $ $ $ $ 0 $ 0 $ $ $ $ $ 1 2       L!L!L!L!L!L!L!L!L!L!L!L!",
"L!L!L!L!L!L!L!L!L!L!L!L!L!L!L!L!L!L!L!L!L!L!L!L!  2 3 $ $ $ $ $ $ $ $ $ $ $ $ $ $ $ $ $ $ $ $ $ $ 4 5       L!L!L!L!L!L!L!L!L!L!",
"L!L!L!L!L!L!L!L!L!L!L!L!L!L!L!L!L!L!L!L!L!L!    3 $ $ 0 $ $ $ $ $ $ $ $ $ $ $ $ $ $ $ $ $ $ $ $ 6 $ $ 7 8     L!L!L!L!L!L!L!L!L!",
"L!L!L!L!L!L!L!L!L!L!L!L!L!L!L!L!L!L!L!L!    9 $ $ $ $ $ $ 0 $ $ $ $ $ :         ; $ < $ $ $ $ $ $ $ $ $ $ =     L!L!L!L!L!L!L!L!",
"L!L!L!L!L!L!L!L!L!L!L!L!L!L!L!L!L!L!L!    > $ / / $ $ $ $ $ ? @           L!L!          A B $ $ $ $ $ / 0 $ C       L!L!L!L!L!L!",
"L!L!L!L!L!L!L!L!L!L!L!L!L!L!L!L!L!L!  D $ $ $ $ $ / $ $ E         L!L!L!L!L!L!L!L!L!L!L!      F G $ $ $ $ $ $ $ %     L!L!L!L!L!",
"L!L!L!L!L!L!L!L!L!L!L!L!L!L!L!L!L!  H $ $ $ $ / $ $ I     J L!L!L!L!L!L!L!L!L!L!L!L!L!L!L!        K $ $ 0 $ $ 0 $ L     L!L!L!L!",
"L!L!L!L!L!L!L!L!L!L!L!L!L!L!L!L!  M $ $ $ $ $ $ N       L!L!L!L!L!L!L!L!L!L!L!L!L!L!L!L!L!L!L!L!      O $ $ $ $ $ $ P   L!L!L!L!",
"L!L!L!L!L!L!L!L!L!L!L!L!L!L!L!  Q $ $ $ $ / $ R   ! L!L!L!L!L!L!L!L!L!L!L!L!L!L!L!L!L!L!L!L!L!L!L!L!    S $ $ / $ . $   L!L!L!L!",
"L!L!L!L!L!L!L!L!L!L!L!L!L!L!    $ $ $ $ / $ P   J L!L!L!L!L!L!L!L!L!L!L!L!L!L!L!L!L!L!L!L!L!L!L!L!L!L!    8 $ $ 0 $ $   L!L!L!L!",
"L!L!L!L!L!L!L!L!L!L!L!L!L!    T $ $ $ $ $ U   ! L!L!                                              L!L!L!    V $ $ $     L!L!L!L!",
"L!L!L!L!L!L!L!L!L!L!L!L!L!  W $ $ $ $ $ X   J L!L!L!  $ $ $ $ $ $ $ $ $ $ $ $ $ $ $ $ $ $ $ Y Z       L!L!L!  [ $ $   L!L!L!L!L!",
"L!L!L!L!L!L!L!L!L!L!L!L!    $ $ 0 $ $ R   J L!L!L!L!  $ $ $ $ $ $ $ $ $ $ $ $ $ $ $ $ $ $ $ $ $ $         L!    $     L!L!L!L!L!",
"L!L!L!L!L!L!L!L!L!L!L!Q   ] $ $ $ $ ^   J L!L!L!L!L!  $ $ $ $ $ $ $ $ $ $ $ $ $ $ $ $ $ $ $ $ $ $ $       L!L!      L!L!L!L!L!L!",
"L!L!L!L!L!L!L!L!L!L!L!  _ $ 0 $ $ $     L!L!L!L!L!L!  $ $ $ $ $ $ $ $ $ $ $ $ $ $ $ $ $ $ $ $ $ $ $ $     L!L!L!L!L!L!L!L!L!L!L!",
"L!L!L!L!L!L!L!L!L!L!L!  ` $ $ $ $ a   L!L!L!L!L!L!L!  $ $ $ $ $ $ $ $ $ $ $ $ $ $ $ $ $ $ $ $ $ $ $ $ $ b   L!L!L!L!L!L!L!L!L!L!",
"L!L!L!L!L!L!L!L!L!L!L!  $ $ $ $ $     L!L!L!L!L!L!L!  $ $ $ $ $ $                       $ $ $ $ $ $ $ $     L!L!L!L!L!L!L!L!L!L!",
"L!L!L!L!L!L!L!L!L!L!  c $ $ $ $ d   L!L!L!L!L!L!L!L!  $ $ $ $ $ $   L!L!L!L!L!L!L!L!      e $ $ $ $ $ $ f   L!L!L!L!L!L!L!L!L!L!",
"L!L!L!L!L!L!L!L!L!L!  0 $ $ / $     L!L!L!L!L!L!L!L!  $ $ $ $ $ $   L!L!L!L!L!L!L!L!L!L!g   $ $ $ $ $ $ $   L!L!L!L!L!L!L!L!L!L!",
"L!L!L!L!            V $ $ $ $ h                       $ $ $ $ $ $   L!L!L!L!L!L!L!L!L!L!L!    $ $ $ $ $ $   L!L!L!L!L!L!L!L!L!L!",
"L!L!L!    $ $ $ $ $ $ / 0 $ $ $ $ $ $ $ $ $ $ $ $ $ $ $ $ $ $ $ $   L!L!L!L!L!L!L!L!L!L!L!    $ $ $ $ $ i   L!L!L!L!L!L!L!L!L!L!",
"L!L!!   $ $ $ $ $ $ $ $ $ $ $ $ $ $ $ $ $ $ $ $ $ $ $ $ $ $ $ $ $   L!L!L!L!L!L!L!L!L!L!      $ $ $ $ $ j   L!L!L!L!L!L!L!L!L!L!",
"L!L!    $ $ $ $ $ $ 0 $ $ $ $ $ $ $ $ $ $ $ $ $ $ $ $ $ $ $ $ $ $   L!L!L!L!L!L!L!L!L!L!    $ $ $ $ $ $     L!L!L!L!L!L!L!L!L!L!",
"L!L!  k $ $ $ $ $ $ $ $ $ / $ $ $ $ $ $ $ $ $ $ $ $ $ $ $ $ $ $ $                         $ $ $ $ $ $ l     L!L!L!L!L!L!L!L!L!L!",
"L!L!J               $ $ $ $                           $ $ $ $ $ $ $ $ $ $ $ $ $ $ $ $ $ $ $ $ $ $ $ $ m   L!L!L!L!L!L!L!L!L!L!L!",
"L!L!L!L!L!L!L!L!L!  $ $ $ $   L!L!L!L!L!L!L!L!L!L!L!  $ $ $ $ $ $ $ $ $ $ $ $ $ $ $ $ $ $ $ $ $ $ $ n     L!L!L!L!L!L!L!L!L!L!L!",
"L!L!L!L!L!L!L!L!L!L!$ $ $ $   L!L!L!L!L!L!L!L!L!L!L!  $ $ $ $ $ $ $ $ $ $ $ $ $ $ $ $ $ $ $ $ $ o       L!L!L!L!L!L!L!L!L!L!L!L!",
"L!L!L!L!L!L!L!L!L!p $ $ / $   L!L!L!L!L!L!L!L!L!L!L!  $ $ $ $ $ $ $ $ $ $ $ $ $ $ $ $ $ $ $ $ $ $ q r     L!L!L!L!L!L!L!L!L!L!L!",
"L!L!L!V             $ $ / $                           $ $ $ $ $ $ $ $ $ $ $ $ $ $ $ $ $ $ $ $ $ $ $ $ s     L!L!L!L!L!L!L!L!L!L!",
"L!L!L!    $ $ $ $ $ $ $ $ $ $ $ $ $ $ $ $ $ $ $ $ $ $ $ $ $ $ $ $ $ $ $ $ $ $ $ $ $ $ $ $ $ $ $ $ $ $ $ t     L!L!L!L!L!L!L!L!L!",
"L!L!L!  $ $ $ $ $ $ / $ $ / $ $ $ $ $ $ $ $ $ $ $ $ $ $ $ $ $ $ $                           $ $ $ $ $ $ $ u   L!L!L!L!L!L!L!L!L!",
"L!L!  ! $ $ $ $ $ $ $ $ $ $ $ $ $ $ $ $ $ $ $ $ $ $ $ $ $ $ $ $ $ ! L!L!L!L!L!L!L!L!L!L!      $ $ $ $ $ $ $ g   L!L!L!L!L!L!L!L!",
"L!L!    $ $ $ $ $ $ $ / $ $ $ / $ $ $ $ $ $ $ $ $ $ $ $ $ $ $ $ $   L!L!L!L!L!L!L!L!L!L!L!      $ $ $ $ $ $ $   L!L!L!L!L!L!L!L!",
"L!L!  $ . / / / 0 / $ $ . $ $ C . / / / / / / / / 0 . $ $ $ $ $ $   L!L!L!L!L!L!L!L!L!L!L!L!    $ $ $ $ $ $ $   L!L!L!L!L!L!L!L!",
"L!L!                  $ $ $ $ G                       $ $ $ $ $ $   L!L!L!L!L!L!L!L!L!L!L!L!    $ $ $ $ $ $ $   L!L!L!L!L!L!L!L!",
"L!L!L!L!L!L!L!L!L!L!  v $ $ 0 $ _   L!L!L!L!L!L!L!L!  $ $ $ $ $ $   L!L!L!L!L!L!L!L!L!L!L!L!    $ $ $ $ $ $ $   L!L!L!L!L!L!L!L!",
"L!L!L!L!L!L!L!L!L!L!  w $ $ $ $ x   L!L!L!L!L!L!L!L!  $ $ $ $ $ $   L!L!L!L!L!L!L!L!L!L!L!    y $ $ $ $ $ $ $   L!L!L!L!L!L!L!L!",
"L!L!L!L!L!L!L!L!L!L!    $ $ $ $ $     L!L!L!L!L!L!L!  $ $ $ $ $ $   L!L!L!L!L!L!L!L!L!      z $ $ $ $ $ $ $ {   L!L!L!L!L!L!L!L!",
"L!L!L!L!L!L!L!L!L!L!L!  B $ / $ $ 3   V L!L!L!L!L!L!  $ $ $ $ $ $                       | $ $ $ $ $ $ $ $ }     L!L!L!L!L!L!L!L!",
"L!L!L!L!L!L!L!L!L!L!L!    $ $ $ $ $ ~   L!L!L!L!L!L!  $ $ $ $ $ $ $ $ $ $ $ $ $ $ $ $ $ $ $ $ $ $ $ $ $ $  !  L!L!L!L!L!L!L!L!L!",
"L!L!L!L!L!L!L!L!L!L!L!L!  !!$ $ $ $ $   ! L!L!L!L!L!  $ $ $ $ $ $ $ $ $ $ $ $ $ $ $ $ $ $ $ $ $ $ $ $ $ #!  L!!     L!L!L!L!L!L!",
"L!L!L!L!L!L!L!L!L!L!L!L!!   $ $ $ $ $ $!    L!L!L!L!  $ $ $ $ $ $ $ $ $ $ $ $ $ $ $ $ $ $ $ $ $ $ $ $ %!  L!    $   L!L!L!L!L!L!",
"L!L!L!L!L!L!L!L!L!L!L!L!L!  &!$ / $ $ $ '!  & L!L!L!  $ $ $ $ $ $ $ $ $ $ $ $ $ $ $ $ $ $ $ $ $ $ $ (!  L!    )!$   L!L!L!L!L!L!",
"L!L!L!L!L!L!L!L!L!L!L!L!L!L!  *!$ $ $ $ $ +!    L!L!  $ $ $ $ $ $ $ $ $ $ $ $ $ $ $ $ $ $ $ $ ,!-!.!  L!    /!$ )   L!L!L!L!L!L!",
"L!L!L!L!L!L!L!L!L!L!L!L!L!L!L!  0!$ $ $ $ $ 1!    L!                                                L!    2!$ $ 3!  L!L!L!L!L!L!",
"L!L!L!L!L!L!L!L!L!L!L!L!L!L!L!V   4!$ $ $ $ $ 5!    V L!L!L!L!L!L!L!L!L!L!L!L!L!L!L!L!L!L!L!L!L!L!Q     6!$ $ $ 7!  L!L!L!L!L!L!",
"L!L!L!L!L!L!L!L!L!L!L!L!L!L!L!L!L!  3!$ / $ $ $ $ 8!    L!L!L!L!L!L!L!L!L!L!L!L!L!L!L!L!L!L!L!L!    ~ $ $ / / $ 9!  L!L!L!L!L!L!",
"L!L!L!L!L!L!L!L!L!L!L!L!L!L!L!L!L!L!  :!$ $ $ $ $ $ ;!<!    ! L!L!L!L!L!L!L!L!L!L!L!L!L!  =!    ! >!$ $ $ $ $ $ 3!  L!L!L!L!L!L!",
"L!L!L!L!L!L!L!L!L!L!L!L!L!L!L!L!L!L!L!  ?!$ / $ $ 0 $ $ @!A!        L!L!L!L!L!L!L!V         S ? $ $ $ $ $ $ $ B!    L!L!L!L!L!L!",
"L!L!L!L!L!L!L!L!L!L!L!L!L!L!L!L!L!L!L!L!  C!$ $ 0 $ $ $ $ $ $ D!E!                    F!G!$ $ $ $ $ $ / $ $       L!L!L!L!L!L!L!",
"L!L!L!L!L!L!L!L!L!L!L!L!L!L!L!L!L!L!L!L!V   2 C $ $ $ $ $ / $ $ $ $ $ $ $     $ $ $ $ $ $ $ $ $ $ $ $ $ $       L!L!L!L!L!L!L!L!",
"L!L!L!L!L!L!L!L!L!L!L!L!L!L!L!L!L!L!L!L!L!      H!$ $ $ / $ $ $ $ $ $ $ $ $ $ $ $ $ $ $ $ $ $ $ $ $ $ L!    L!L!L!L!L!L!L!L!L!L!",
"L!L!L!L!L!L!L!L!L!L!L!L!L!L!L!L!L!L!L!L!L!L!L!&     I!$ $ $ $ $ $ $ $ $ $ $ $ $ $ $ $ $ $ $ $ $ $   L!L!L!L!L!L!L!L!L!L!L!L!L!L!",
"L!L!L!L!L!L!L!L!L!L!L!L!L!L!L!L!L!L!L!L!L!L!L!L!L!      J!1!$ $ $ $ $ $ $ $ $ $ $ $ $ $ $ $ K!      L!L!L!L!L!L!L!L!L!L!L!L!L!L!",
"L!L!L!L!L!L!L!L!L!L!L!L!L!L!L!L!L!L!L!L!L!L!L!L!L!L!L!J       _       $ $ $ $ $ $ $             V L!L!L!L!L!L!L!L!L!L!L!L!L!L!L!",
"L!L!L!L!L!L!L!L!L!L!L!L!L!L!L!L!L!L!L!L!L!L!L!L!L!L!L!L!L!L!L!                              L!L!L!L!L!L!L!L!L!L!L!L!L!L!L!L!L!L!",
"L!L!L!L!L!L!L!L!L!L!L!L!L!L!L!L!L!L!L!L!L!L!L!L!L!L!L!L!L!L!L!L!L!L!L!L!L!L!L!L!L!L!L!L!L!L!L!L!L!L!L!L!L!L!L!L!L!L!L!L!L!L!L!L!",
"L!L!L!L!L!L!L!L!L!L!L!L!L!L!L!L!L!L!L!L!L!L!L!L!L!L!L!L!L!L!L!L!L!L!L!L!L!L!L!L!L!L!L!L!L!L!L!L!L!L!L!L!L!L!L!L!L!L!L!L!L!L!L!L!",
"L!L!L!L!L!L!L!L!L!L!L!L!L!L!L!L!L!L!L!L!L!L!L!L!L!L!L!L!L!L!L!L!L!L!L!L!L!L!L!L!L!L!L!L!L!L!L!L!L!L!L!L!L!L!L!L!L!L!L!L!L!L!L!L!"
};
