/* XPM */
static char *bitcoin16[] = {
"16 16 67 1 0 0",
"  c #FFFFFF",
"! c #ACACAC",
"# c #1B1B1B",
"$ c #000000",
"% c #131313",
"& c #A1A1A1",
"' c #111111",
"( c #8A8A8A",
") c #E8E8E8",
"* c #EDEDED",
"+ c #939393",
", c #080808",
"- c #030303",
". c #1A1A1A",
"/ c #1F1F1F",
"0 c #3E3E3E",
"1 c #515151",
"2 c #090909",
"3 c #8591A0",
"4 c #DDDDDD",
"5 c #B7B7B7",
"6 c #858585",
"7 c #373534",
"8 c #EBF1F6",
"9 c #151515",
": c #191919",
"; c #303030",
"< c #1E1E1E",
"= c #181818",
"> c #ECECEC",
"? c #ADA89F",
"@ c #D3DAE1",
"A c #E3E3E3",
"B c #343434",
"C c #3B3B3C",
"D c #434141",
"E c #60656E",
"F c #353535",
"G c #232323",
"H c #272727",
"I c #28292A",
"J c #000004",
"K c #E6EBF1",
"L c #F6F6F6",
"M c #363636",
"N c #212121",
"O c #1C1C1C",
"P c #E5E5E5",
"Q c #515B5E",
"R c #B5B5B5",
"S c #D6D6D6",
"T c #AAA7A4",
"U c #616161",
"V c #D6D6D5",
"W c #070707",
"X c #060605",
"Y c #BBBBBB",
"Z c #242424",
"[ c #757575",
"] c #FEFEFE",
"^ c #DADADA",
"_ c #787877",
"` c #1D1D1D",
"a c #3C3C3C",
"b c #373737",
"c c #B4B4B4",
"d c None",
"                ",
"      !#$$$%&   ",
"     '$() *+$,  ",
"    -.       /0 ",
"   12  $$$$$3 4 ",
"   $  5$6  7$8  ",
" 9:$;<=$>  ?$@  ",
"A  0   $BCD$E   ",
"   F   $GHI$JK  ",
"L,.$MNO$P   $Q  ",
"   $  R$S  T$   ",
"   U$  $$$$$$ V ",
"    W9       XY ",
"     Z$[ ]^_$`  ",
"      Ya$$$bc   ",
"                "
};
